P2
9 1
120
120 100 080 113 020 030 107 030 040


