P2
3 3
120
120 100 080
113 020 030
107 030 040

