P2
7 15
120
120 100 080 060 040 020 000
113 020 030 040 050 060 007
107 030 040 050 060 070 013
100 040 050 060 070 080 020
093 050 060 070 080 090 027
087 060 070 080 090 100 033
080 073 067 060 053 047 040

073 040 060 080 100 120 047

080 073 067 060 053 047 040
087 060 070 080 090 100 033
093 050 060 070 080 090 027
100 040 050 060 070 080 020
107 030 040 050 060 070 013
113 020 030 040 050 060 007
120 100 080 060 040 020 000
