P2
7 15
124
124 097 084 061 044 023 004 
115 023 031 043 056 063 013 
110 030 042 055 050 077 015 
100 042 062 050 075 086 027 
083 051 050 066 086 088 029 
087 062 070 082 095 104 033 
082 071 073 049 059 044 046 
073 042 049 086 107 122 047 
082 077 074 061 059 046 046 
087 062 074 086 083 106 039 
083 059 050 073 086 083 017 
096 046 051 062 064 080 020 
107 030 040 050 060 070 013 
113 020 030 040 050 060 007 
120 100 080 060 040 020 000 
