P2
7 15
123
122 101 083 060 041 021 001 
115 021 028 043 048 061 006 
107 029 041 051 060 068 014 
103 041 048 061 071 081 022 
094 051 063 068 081 090 027 
085 060 070 083 088 101 034 
081 075 064 063 054 045 041 
074 040 062 081 100 123 045 
081 075 066 062 053 045 042 
087 060 070 080 090 100 033 
093 050 060 070 080 090 027 
100 040 050 060 070 080 020 
107 030 040 050 060 070 013 
113 020 030 040 050 060 007 
120 100 080 060 040 020 000 
